<svg width="348" height="17" viewBox="0 0 348 17" fill="none" xmlns="http://www.w3.org/2000/svg">
<path d="M8.586 15.808C7.014 15.808 5.64 15.484 4.464 14.836C3.288 14.2 2.382 13.306 1.746 12.154C1.11 11.002 0.792 9.676 0.792 8.176C0.792 6.544 1.128 5.128 1.8 3.928C2.484 2.728 3.414 1.81 4.59 1.174C5.778 0.526 7.116 0.202 8.604 0.202C10.164 0.202 11.502 0.502 12.618 1.102C13.746 1.702 14.598 2.506 15.174 3.514C15.75 4.522 16.038 5.632 16.038 6.844C16.038 7.936 15.87 8.86 15.534 9.616C15.198 10.372 14.748 10.936 14.184 11.308C13.632 11.68 13.014 11.866 12.33 11.866C11.694 11.866 11.184 11.728 10.8 11.452C10.416 11.176 10.188 10.798 10.116 10.318H10.08C9.408 11.35 8.526 11.866 7.434 11.866C6.582 11.866 5.904 11.578 5.4 11.002C4.908 10.414 4.662 9.628 4.662 8.644C4.662 7.804 4.818 7.03 5.13 6.322C5.454 5.614 5.904 5.056 6.48 4.648C7.068 4.228 7.728 4.018 8.46 4.018C8.976 4.018 9.426 4.132 9.81 4.36C10.206 4.588 10.476 4.9 10.62 5.296H10.656L10.746 4.846C10.77 4.642 10.854 4.486 10.998 4.378C11.142 4.27 11.334 4.216 11.574 4.216C11.814 4.216 12 4.282 12.132 4.414C12.276 4.546 12.348 4.726 12.348 4.954C12.348 5.062 12.342 5.14 12.33 5.188L11.718 8.662C11.67 8.914 11.646 9.172 11.646 9.436C11.646 9.808 11.724 10.084 11.88 10.264C12.036 10.444 12.288 10.534 12.636 10.534C12.912 10.534 13.188 10.414 13.464 10.174C13.74 9.922 13.974 9.52 14.166 8.968C14.358 8.416 14.454 7.708 14.454 6.844C14.454 5.86 14.232 4.978 13.788 4.198C13.356 3.406 12.696 2.782 11.808 2.326C10.932 1.87 9.864 1.642 8.604 1.642C7.428 1.642 6.372 1.9 5.436 2.416C4.512 2.932 3.78 3.682 3.24 4.666C2.712 5.65 2.448 6.82 2.448 8.176C2.448 9.424 2.694 10.516 3.186 11.452C3.678 12.376 4.386 13.09 5.31 13.594C6.234 14.11 7.326 14.368 8.586 14.368C9.414 14.368 10.14 14.266 10.764 14.062C11.388 13.87 11.964 13.576 12.492 13.18C12.66 13.048 12.84 12.982 13.032 12.982C13.236 12.982 13.404 13.054 13.536 13.198C13.668 13.342 13.734 13.516 13.734 13.72C13.734 13.984 13.62 14.206 13.392 14.386C12.9 14.806 12.228 15.148 11.376 15.412C10.536 15.676 9.606 15.808 8.586 15.808ZM7.794 10.534C8.31 10.534 8.754 10.372 9.126 10.048C9.51 9.724 9.798 9.304 9.99 8.788C10.194 8.272 10.296 7.732 10.296 7.168C10.296 6.58 10.158 6.136 9.882 5.836C9.606 5.524 9.222 5.368 8.73 5.368C8.238 5.368 7.806 5.53 7.434 5.854C7.074 6.166 6.798 6.574 6.606 7.078C6.426 7.57 6.336 8.086 6.336 8.626C6.336 9.214 6.468 9.682 6.732 10.03C7.008 10.366 7.362 10.534 7.794 10.534ZM25.7687 11.128C26.4887 11.128 26.8487 11.434 26.8487 12.046C26.8487 12.682 26.4887 13 25.7687 13H18.9287C18.6167 13 18.3707 12.91 18.1907 12.73C18.0107 12.538 17.9207 12.304 17.9207 12.028C17.9207 11.668 18.0587 11.344 18.3347 11.056L22.4387 6.646C22.9427 6.094 23.3087 5.59 23.5367 5.134C23.7767 4.666 23.8967 4.204 23.8967 3.748C23.8967 3.184 23.7347 2.752 23.4107 2.452C23.0867 2.152 22.6247 2.002 22.0247 2.002C21.5327 2.002 21.0527 2.098 20.5847 2.29C20.1287 2.47 19.6667 2.722 19.1987 3.046C19.0787 3.13 18.9587 3.202 18.8387 3.262C18.7187 3.31 18.5987 3.334 18.4787 3.334C18.2747 3.334 18.0947 3.238 17.9387 3.046C17.7947 2.854 17.7227 2.626 17.7227 2.362C17.7227 2.182 17.7527 2.026 17.8127 1.894C17.8847 1.762 17.9927 1.636 18.1367 1.516C18.6647 1.096 19.2827 0.765999 19.9907 0.526C20.6987 0.273999 21.4067 0.147999 22.1147 0.147999C23.3507 0.147999 24.3347 0.459999 25.0667 1.084C25.8107 1.708 26.1827 2.548 26.1827 3.604C26.1827 4.336 26.0267 5.026 25.7147 5.674C25.4027 6.31 24.8747 7.024 24.1307 7.816L21.0167 11.128H25.7687ZM33.0152 13.162C31.5152 13.162 30.3692 12.61 29.5772 11.506C28.7852 10.39 28.3892 8.77 28.3892 6.646C28.3892 4.534 28.7852 2.926 29.5772 1.822C30.3692 0.705999 31.5152 0.147999 33.0152 0.147999C34.5152 0.147999 35.6612 0.705999 36.4532 1.822C37.2452 2.926 37.6412 4.534 37.6412 6.646C37.6412 8.758 37.2452 10.372 36.4532 11.488C35.6612 12.604 34.5152 13.162 33.0152 13.162ZM33.0152 11.344C33.8312 11.344 34.4252 10.972 34.7972 10.228C35.1692 9.472 35.3552 8.278 35.3552 6.646C35.3552 5.002 35.1692 3.814 34.7972 3.082C34.4252 2.338 33.8312 1.966 33.0152 1.966C32.1992 1.966 31.6052 2.338 31.2332 3.082C30.8612 3.826 30.6752 5.014 30.6752 6.646C30.6752 8.278 30.8612 9.472 31.2332 10.228C31.6052 10.972 32.1992 11.344 33.0152 11.344ZM47.3722 11.128C48.0922 11.128 48.4522 11.434 48.4522 12.046C48.4522 12.682 48.0922 13 47.3722 13H40.5322C40.2202 13 39.9742 12.91 39.7942 12.73C39.6142 12.538 39.5242 12.304 39.5242 12.028C39.5242 11.668 39.6622 11.344 39.9382 11.056L44.0422 6.646C44.5462 6.094 44.9122 5.59 45.1402 5.134C45.3802 4.666 45.5002 4.204 45.5002 3.748C45.5002 3.184 45.3382 2.752 45.0142 2.452C44.6902 2.152 44.2282 2.002 43.6282 2.002C43.1362 2.002 42.6562 2.098 42.1882 2.29C41.7322 2.47 41.2702 2.722 40.8022 3.046C40.6822 3.13 40.5622 3.202 40.4422 3.262C40.3222 3.31 40.2022 3.334 40.0822 3.334C39.8782 3.334 39.6982 3.238 39.5422 3.046C39.3982 2.854 39.3262 2.626 39.3262 2.362C39.3262 2.182 39.3562 2.026 39.4162 1.894C39.4882 1.762 39.5962 1.636 39.7402 1.516C40.2682 1.096 40.8862 0.765999 41.5942 0.526C42.3022 0.273999 43.0102 0.147999 43.7182 0.147999C44.9542 0.147999 45.9382 0.459999 46.6702 1.084C47.4142 1.708 47.7862 2.548 47.7862 3.604C47.7862 4.336 47.6302 5.026 47.3182 5.674C47.0062 6.31 46.4782 7.024 45.7342 7.816L42.6202 11.128H47.3722ZM54.6188 13.162C53.1188 13.162 51.9728 12.61 51.1808 11.506C50.3888 10.39 49.9928 8.77 49.9928 6.646C49.9928 4.534 50.3888 2.926 51.1808 1.822C51.9728 0.705999 53.1188 0.147999 54.6188 0.147999C56.1188 0.147999 57.2648 0.705999 58.0568 1.822C58.8488 2.926 59.2448 4.534 59.2448 6.646C59.2448 8.758 58.8488 10.372 58.0568 11.488C57.2648 12.604 56.1188 13.162 54.6188 13.162ZM54.6188 11.344C55.4348 11.344 56.0288 10.972 56.4008 10.228C56.7728 9.472 56.9588 8.278 56.9588 6.646C56.9588 5.002 56.7728 3.814 56.4008 3.082C56.0288 2.338 55.4348 1.966 54.6188 1.966C53.8028 1.966 53.2088 2.338 52.8368 3.082C52.4648 3.826 52.2788 5.014 52.2788 6.646C52.2788 8.278 52.4648 9.472 52.8368 10.228C53.2088 10.972 53.8028 11.344 54.6188 11.344ZM70.4244 13.09C70.0644 13.09 69.7764 12.988 69.5604 12.784C69.3564 12.568 69.2544 12.286 69.2544 11.938V2.218H65.9784C65.2584 2.218 64.8984 1.9 64.8984 1.264C64.8984 0.627999 65.2584 0.309999 65.9784 0.309999H74.8524C75.5724 0.309999 75.9324 0.627999 75.9324 1.264C75.9324 1.9 75.5724 2.218 74.8524 2.218H71.5764V11.938C71.5764 12.286 71.4684 12.568 71.2524 12.784C71.0484 12.988 70.7724 13.09 70.4244 13.09ZM79.7153 13.144C78.8153 13.144 78.0233 12.958 77.3393 12.586C76.6673 12.214 76.1453 11.68 75.7733 10.984C75.4013 10.288 75.2153 9.478 75.2153 8.554C75.2153 7.63 75.4013 6.826 75.7733 6.142C76.1453 5.446 76.6673 4.912 77.3393 4.54C78.0233 4.168 78.8153 3.982 79.7153 3.982C80.6153 3.982 81.4013 4.168 82.0733 4.54C82.7573 4.912 83.2793 5.446 83.6393 6.142C84.0113 6.826 84.1973 7.63 84.1973 8.554C84.1973 9.478 84.0113 10.288 83.6393 10.984C83.2793 11.68 82.7573 12.214 82.0733 12.586C81.4013 12.958 80.6153 13.144 79.7153 13.144ZM79.6973 11.398C80.4293 11.398 80.9873 11.158 81.3713 10.678C81.7553 10.198 81.9473 9.49 81.9473 8.554C81.9473 7.63 81.7553 6.928 81.3713 6.448C80.9873 5.956 80.4353 5.71 79.7153 5.71C78.9953 5.71 78.4373 5.956 78.0413 6.448C77.6573 6.928 77.4653 7.63 77.4653 8.554C77.4653 9.49 77.6573 10.198 78.0413 10.678C78.4253 11.158 78.9773 11.398 79.6973 11.398ZM96.5128 3.982C97.4728 3.982 98.2048 4.27 98.7088 4.846C99.2248 5.41 99.4828 6.328 99.4828 7.6V12.028C99.4828 12.376 99.3748 12.646 99.1588 12.838C98.9548 13.018 98.6848 13.108 98.3488 13.108C98.0248 13.108 97.7548 13.018 97.5388 12.838C97.3348 12.646 97.2328 12.376 97.2328 12.028V7.6C97.2328 6.94 97.1128 6.472 96.8728 6.196C96.6448 5.908 96.2908 5.764 95.8108 5.764C95.2228 5.764 94.7548 5.968 94.4068 6.376C94.0588 6.772 93.8848 7.318 93.8848 8.014V12.028C93.8848 12.376 93.7768 12.646 93.5608 12.838C93.3568 13.018 93.0928 13.108 92.7688 13.108C92.4448 13.108 92.1748 13.018 91.9588 12.838C91.7428 12.646 91.6348 12.376 91.6348 12.028V7.6C91.6348 6.94 91.5148 6.472 91.2748 6.196C91.0468 5.908 90.6928 5.764 90.2128 5.764C89.6248 5.764 89.1568 5.968 88.8088 6.376C88.4728 6.772 88.3048 7.318 88.3048 8.014V12.028C88.3048 12.376 88.1968 12.646 87.9808 12.838C87.7648 13.018 87.4948 13.108 87.1708 13.108C86.8468 13.108 86.5768 13.018 86.3608 12.838C86.1568 12.646 86.0548 12.376 86.0548 12.028V5.062C86.0548 4.726 86.1628 4.468 86.3788 4.288C86.5948 4.108 86.8648 4.018 87.1888 4.018C87.5008 4.018 87.7528 4.108 87.9448 4.288C88.1488 4.456 88.2508 4.702 88.2508 5.026V5.458C88.5268 4.978 88.8928 4.612 89.3488 4.36C89.8168 4.108 90.3508 3.982 90.9508 3.982C92.2708 3.982 93.1528 4.534 93.5968 5.638C93.8608 5.134 94.2508 4.732 94.7668 4.432C95.2828 4.132 95.8648 3.982 96.5128 3.982ZM105.586 3.982C106.81 3.982 107.716 4.288 108.304 4.9C108.904 5.5 109.204 6.418 109.204 7.654V12.046C109.204 12.37 109.108 12.628 108.916 12.82C108.724 13 108.46 13.09 108.124 13.09C107.812 13.09 107.554 12.994 107.35 12.802C107.158 12.61 107.062 12.358 107.062 12.046V11.65C106.858 12.118 106.534 12.484 106.09 12.748C105.658 13.012 105.154 13.144 104.578 13.144C103.99 13.144 103.456 13.024 102.976 12.784C102.496 12.544 102.118 12.214 101.842 11.794C101.566 11.374 101.428 10.906 101.428 10.39C101.428 9.742 101.59 9.232 101.914 8.86C102.25 8.488 102.79 8.218 103.534 8.05C104.278 7.882 105.304 7.798 106.612 7.798H107.062V7.384C107.062 6.796 106.936 6.37 106.684 6.106C106.432 5.83 106.024 5.692 105.46 5.692C105.112 5.692 104.758 5.746 104.398 5.854C104.038 5.95 103.612 6.094 103.12 6.286C102.808 6.442 102.58 6.52 102.436 6.52C102.22 6.52 102.04 6.442 101.896 6.286C101.764 6.13 101.698 5.926 101.698 5.674C101.698 5.47 101.746 5.296 101.842 5.152C101.95 4.996 102.124 4.852 102.364 4.72C102.784 4.492 103.282 4.312 103.858 4.18C104.446 4.048 105.022 3.982 105.586 3.982ZM105.028 11.524C105.628 11.524 106.114 11.326 106.486 10.93C106.87 10.522 107.062 10 107.062 9.364V8.986H106.738C105.934 8.986 105.31 9.022 104.866 9.094C104.422 9.166 104.104 9.292 103.912 9.472C103.72 9.652 103.624 9.898 103.624 10.21C103.624 10.594 103.756 10.912 104.02 11.164C104.296 11.404 104.632 11.524 105.028 11.524ZM114.676 13.144C113.368 13.144 112.312 12.886 111.508 12.37C111.124 12.142 110.932 11.818 110.932 11.398C110.932 11.158 110.998 10.966 111.13 10.822C111.262 10.666 111.424 10.588 111.616 10.588C111.82 10.588 112.102 10.684 112.462 10.876C112.846 11.056 113.194 11.194 113.506 11.29C113.83 11.386 114.238 11.434 114.73 11.434C115.234 11.434 115.624 11.35 115.9 11.182C116.188 11.014 116.332 10.78 116.332 10.48C116.332 10.276 116.272 10.114 116.152 9.994C116.044 9.874 115.84 9.766 115.54 9.67C115.252 9.562 114.808 9.442 114.208 9.31C113.14 9.094 112.372 8.788 111.904 8.392C111.448 7.996 111.22 7.45 111.22 6.754C111.22 6.226 111.376 5.752 111.688 5.332C112 4.9 112.426 4.57 112.966 4.342C113.518 4.102 114.142 3.982 114.838 3.982C115.342 3.982 115.828 4.048 116.296 4.18C116.764 4.3 117.184 4.48 117.556 4.72C117.94 4.96 118.132 5.278 118.132 5.674C118.132 5.914 118.066 6.118 117.934 6.286C117.802 6.442 117.64 6.52 117.448 6.52C117.316 6.52 117.184 6.496 117.052 6.448C116.932 6.388 116.776 6.304 116.584 6.196C116.236 6.016 115.936 5.884 115.684 5.8C115.432 5.704 115.12 5.656 114.748 5.656C114.304 5.656 113.95 5.746 113.686 5.926C113.434 6.106 113.308 6.352 113.308 6.664C113.308 6.964 113.44 7.192 113.704 7.348C113.968 7.504 114.478 7.66 115.234 7.816C116.038 7.984 116.668 8.176 117.124 8.392C117.58 8.608 117.904 8.878 118.096 9.202C118.3 9.526 118.402 9.94 118.402 10.444C118.402 11.26 118.06 11.914 117.376 12.406C116.704 12.898 115.804 13.144 114.676 13.144ZM126.691 11.308C127.363 11.308 127.699 11.59 127.699 12.154C127.699 12.418 127.615 12.628 127.447 12.784C127.279 12.928 127.027 13 126.691 13H120.679C120.379 13 120.133 12.904 119.941 12.712C119.749 12.52 119.653 12.292 119.653 12.028C119.653 11.752 119.761 11.488 119.977 11.236L124.603 5.89H120.589C120.253 5.89 120.001 5.818 119.833 5.674C119.665 5.53 119.581 5.32 119.581 5.044C119.581 4.768 119.665 4.558 119.833 4.414C120.001 4.27 120.253 4.198 120.589 4.198H126.403C126.715 4.198 126.961 4.294 127.141 4.486C127.333 4.666 127.429 4.894 127.429 5.17C127.429 5.458 127.327 5.722 127.123 5.962L122.479 11.308H126.691ZM144.065 6.142C144.341 6.142 144.563 6.226 144.731 6.394C144.899 6.55 144.983 6.76 144.983 7.024V10.894C144.983 11.446 144.911 11.836 144.767 12.064C144.623 12.292 144.329 12.478 143.885 12.622C143.405 12.79 142.847 12.922 142.211 13.018C141.575 13.114 140.963 13.162 140.375 13.162C139.067 13.162 137.933 12.904 136.973 12.388C136.013 11.872 135.275 11.128 134.759 10.156C134.255 9.172 134.003 8.002 134.003 6.646C134.003 5.314 134.255 4.162 134.759 3.19C135.275 2.206 136.001 1.456 136.937 0.94C137.873 0.411999 138.977 0.147999 140.249 0.147999C141.941 0.147999 143.327 0.603999 144.407 1.516C144.551 1.648 144.653 1.78 144.713 1.912C144.785 2.044 144.821 2.2 144.821 2.38C144.821 2.644 144.749 2.866 144.605 3.046C144.461 3.226 144.287 3.316 144.083 3.316C143.951 3.316 143.831 3.298 143.723 3.262C143.615 3.214 143.489 3.142 143.345 3.046C142.817 2.674 142.325 2.416 141.869 2.272C141.413 2.116 140.897 2.038 140.321 2.038C139.013 2.038 138.023 2.428 137.351 3.208C136.691 3.976 136.361 5.122 136.361 6.646C136.361 9.766 137.729 11.326 140.465 11.326C141.281 11.326 142.097 11.212 142.913 10.984V7.798H140.879C140.591 7.798 140.363 7.726 140.195 7.582C140.039 7.438 139.961 7.234 139.961 6.97C139.961 6.706 140.039 6.502 140.195 6.358C140.363 6.214 140.591 6.142 140.879 6.142H144.065ZM151.218 3.982C152.442 3.982 153.348 4.288 153.936 4.9C154.536 5.5 154.836 6.418 154.836 7.654V12.046C154.836 12.37 154.74 12.628 154.548 12.82C154.356 13 154.092 13.09 153.756 13.09C153.444 13.09 153.186 12.994 152.982 12.802C152.79 12.61 152.694 12.358 152.694 12.046V11.65C152.49 12.118 152.166 12.484 151.722 12.748C151.29 13.012 150.786 13.144 150.21 13.144C149.622 13.144 149.088 13.024 148.608 12.784C148.128 12.544 147.75 12.214 147.474 11.794C147.198 11.374 147.06 10.906 147.06 10.39C147.06 9.742 147.222 9.232 147.546 8.86C147.882 8.488 148.422 8.218 149.166 8.05C149.91 7.882 150.936 7.798 152.244 7.798H152.694V7.384C152.694 6.796 152.568 6.37 152.316 6.106C152.064 5.83 151.656 5.692 151.092 5.692C150.744 5.692 150.39 5.746 150.03 5.854C149.67 5.95 149.244 6.094 148.752 6.286C148.44 6.442 148.212 6.52 148.068 6.52C147.852 6.52 147.672 6.442 147.528 6.286C147.396 6.13 147.33 5.926 147.33 5.674C147.33 5.47 147.378 5.296 147.474 5.152C147.582 4.996 147.756 4.852 147.996 4.72C148.416 4.492 148.914 4.312 149.49 4.18C150.078 4.048 150.654 3.982 151.218 3.982ZM150.66 11.524C151.26 11.524 151.746 11.326 152.118 10.93C152.502 10.522 152.694 10 152.694 9.364V8.986H152.37C151.566 8.986 150.942 9.022 150.498 9.094C150.054 9.166 149.736 9.292 149.544 9.472C149.352 9.652 149.256 9.898 149.256 10.21C149.256 10.594 149.388 10.912 149.652 11.164C149.928 11.404 150.264 11.524 150.66 11.524ZM155.863 16.276C155.431 16.3 155.101 16.24 154.873 16.096C154.633 15.952 154.513 15.73 154.513 15.43C154.513 14.938 154.813 14.668 155.413 14.62L155.899 14.584C156.307 14.56 156.613 14.434 156.817 14.206C157.021 13.978 157.123 13.63 157.123 13.162V5.08C157.123 4.732 157.225 4.468 157.429 4.288C157.645 4.108 157.915 4.018 158.239 4.018C158.563 4.018 158.833 4.108 159.049 4.288C159.265 4.468 159.373 4.732 159.373 5.08V13C159.373 15.016 158.365 16.096 156.349 16.24L155.863 16.276ZM158.221 2.416C157.813 2.416 157.489 2.308 157.249 2.092C157.009 1.864 156.889 1.57 156.889 1.21C156.889 0.849999 157.009 0.561999 157.249 0.346C157.489 0.13 157.813 0.0219997 158.221 0.0219997C158.617 0.0219997 158.935 0.13 159.175 0.346C159.427 0.561999 159.553 0.849999 159.553 1.21C159.553 1.57 159.433 1.864 159.193 2.092C158.953 2.308 158.629 2.416 158.221 2.416ZM169.037 0.219999C169.373 0.219999 169.649 0.316 169.865 0.508C170.081 0.7 170.189 0.952 170.189 1.264V12.028C170.189 12.352 170.087 12.61 169.883 12.802C169.679 12.994 169.409 13.09 169.073 13.09C168.737 13.09 168.467 12.994 168.263 12.802C168.059 12.61 167.957 12.352 167.957 12.028V11.578C167.693 12.07 167.309 12.454 166.805 12.73C166.313 13.006 165.749 13.144 165.113 13.144C164.357 13.144 163.679 12.952 163.079 12.568C162.491 12.184 162.029 11.644 161.693 10.948C161.369 10.24 161.207 9.43 161.207 8.518C161.207 7.606 161.369 6.808 161.693 6.124C162.029 5.44 162.491 4.912 163.079 4.54C163.667 4.168 164.345 3.982 165.113 3.982C165.749 3.982 166.313 4.114 166.805 4.378C167.297 4.642 167.675 5.014 167.939 5.494V1.228C167.939 0.927999 168.035 0.688 168.227 0.508C168.431 0.316 168.701 0.219999 169.037 0.219999ZM165.707 11.398C166.427 11.398 166.979 11.152 167.363 10.66C167.759 10.168 167.957 9.466 167.957 8.554C167.957 7.642 167.759 6.946 167.363 6.466C166.979 5.974 166.433 5.728 165.725 5.728C165.005 5.728 164.447 5.968 164.051 6.448C163.655 6.928 163.457 7.618 163.457 8.518C163.457 9.43 163.655 10.138 164.051 10.642C164.447 11.146 164.999 11.398 165.707 11.398ZM176.32 3.982C177.544 3.982 178.45 4.288 179.038 4.9C179.638 5.5 179.938 6.418 179.938 7.654V12.046C179.938 12.37 179.842 12.628 179.65 12.82C179.458 13 179.194 13.09 178.858 13.09C178.546 13.09 178.288 12.994 178.084 12.802C177.892 12.61 177.796 12.358 177.796 12.046V11.65C177.592 12.118 177.268 12.484 176.824 12.748C176.392 13.012 175.888 13.144 175.312 13.144C174.724 13.144 174.19 13.024 173.71 12.784C173.23 12.544 172.852 12.214 172.576 11.794C172.3 11.374 172.162 10.906 172.162 10.39C172.162 9.742 172.324 9.232 172.648 8.86C172.984 8.488 173.524 8.218 174.268 8.05C175.012 7.882 176.038 7.798 177.346 7.798H177.796V7.384C177.796 6.796 177.67 6.37 177.418 6.106C177.166 5.83 176.758 5.692 176.194 5.692C175.846 5.692 175.492 5.746 175.132 5.854C174.772 5.95 174.346 6.094 173.854 6.286C173.542 6.442 173.314 6.52 173.17 6.52C172.954 6.52 172.774 6.442 172.63 6.286C172.498 6.13 172.432 5.926 172.432 5.674C172.432 5.47 172.48 5.296 172.576 5.152C172.684 4.996 172.858 4.852 173.098 4.72C173.518 4.492 174.016 4.312 174.592 4.18C175.18 4.048 175.756 3.982 176.32 3.982ZM175.762 11.524C176.362 11.524 176.848 11.326 177.22 10.93C177.604 10.522 177.796 10 177.796 9.364V8.986H177.472C176.668 8.986 176.044 9.022 175.6 9.094C175.156 9.166 174.838 9.292 174.646 9.472C174.454 9.652 174.358 9.898 174.358 10.21C174.358 10.594 174.49 10.912 174.754 11.164C175.03 11.404 175.366 11.524 175.762 11.524ZM198.433 12.154C198.481 12.25 198.505 12.352 198.505 12.46C198.505 12.64 198.433 12.79 198.289 12.91C198.157 13.03 197.995 13.09 197.803 13.09C197.503 13.09 197.293 12.946 197.173 12.658L195.895 9.742H189.109L187.813 12.658C187.693 12.946 187.483 13.09 187.183 13.09C186.991 13.09 186.823 13.03 186.679 12.91C186.535 12.778 186.463 12.622 186.463 12.442C186.463 12.346 186.487 12.25 186.535 12.154L191.683 0.705999C191.755 0.538 191.863 0.411999 192.007 0.327999C192.151 0.243999 192.307 0.202 192.475 0.202C192.655 0.202 192.817 0.25 192.961 0.346C193.105 0.429999 193.213 0.549999 193.285 0.705999L198.433 12.154ZM189.649 8.518H195.355L192.493 2.056L189.649 8.518ZM201.108 13.09C200.892 13.09 200.712 13.03 200.568 12.91C200.436 12.778 200.37 12.598 200.37 12.37V0.94C200.37 0.712 200.436 0.538 200.568 0.417999C200.712 0.285999 200.892 0.219999 201.108 0.219999C201.312 0.219999 201.48 0.285999 201.612 0.417999C201.756 0.538 201.828 0.712 201.828 0.94V12.37C201.828 12.598 201.756 12.778 201.612 12.91C201.48 13.03 201.312 13.09 201.108 13.09ZM205.291 13.09C205.075 13.09 204.895 13.03 204.751 12.91C204.619 12.778 204.553 12.598 204.553 12.37V0.94C204.553 0.712 204.619 0.538 204.751 0.417999C204.895 0.285999 205.075 0.219999 205.291 0.219999C205.495 0.219999 205.663 0.285999 205.795 0.417999C205.939 0.538 206.011 0.712 206.011 0.94V12.37C206.011 12.598 205.939 12.778 205.795 12.91C205.663 13.03 205.495 13.09 205.291 13.09ZM223.277 12.082C223.361 12.214 223.403 12.352 223.403 12.496C223.403 12.676 223.331 12.826 223.187 12.946C223.055 13.054 222.899 13.108 222.719 13.108C222.443 13.108 222.227 12.988 222.071 12.748L219.659 8.932C219.347 8.44 219.023 8.104 218.687 7.924C218.351 7.732 217.895 7.636 217.319 7.636H215.051V12.334C215.051 12.562 214.985 12.748 214.853 12.892C214.721 13.024 214.547 13.09 214.331 13.09C214.103 13.09 213.923 13.024 213.791 12.892C213.659 12.748 213.593 12.562 213.593 12.334V1.03C213.593 0.814 213.659 0.64 213.791 0.508C213.935 0.375999 214.121 0.309999 214.349 0.309999H218.813C220.193 0.309999 221.243 0.615999 221.963 1.228C222.695 1.84 223.061 2.74 223.061 3.928C223.061 4.936 222.767 5.746 222.179 6.358C221.603 6.97 220.775 7.342 219.695 7.474C219.995 7.57 220.265 7.726 220.505 7.942C220.745 8.158 220.985 8.458 221.225 8.842L223.277 12.082ZM218.687 6.412C219.671 6.412 220.403 6.208 220.883 5.8C221.375 5.392 221.621 4.774 221.621 3.946C221.621 3.13 221.381 2.524 220.901 2.128C220.421 1.732 219.683 1.534 218.687 1.534H215.051V6.412H218.687ZM226.455 13.09C226.239 13.09 226.059 13.03 225.915 12.91C225.783 12.778 225.717 12.598 225.717 12.37V4.774C225.717 4.546 225.783 4.372 225.915 4.252C226.059 4.12 226.239 4.054 226.455 4.054C226.671 4.054 226.845 4.12 226.977 4.252C227.109 4.372 227.175 4.546 227.175 4.774V12.37C227.175 12.61 227.109 12.79 226.977 12.91C226.845 13.03 226.671 13.09 226.455 13.09ZM226.455 2.164C226.167 2.164 225.933 2.08 225.753 1.912C225.573 1.744 225.483 1.522 225.483 1.246C225.483 0.982 225.573 0.766 225.753 0.598C225.933 0.43 226.167 0.346 226.455 0.346C226.743 0.346 226.977 0.43 227.157 0.598C227.337 0.766 227.427 0.982 227.427 1.246C227.427 1.522 227.337 1.744 227.157 1.912C226.977 2.08 226.743 2.164 226.455 2.164ZM237.011 4.054C237.239 4.054 237.419 4.12 237.551 4.252C237.683 4.384 237.749 4.558 237.749 4.774V12.406C237.749 13.714 237.413 14.698 236.741 15.358C236.069 16.03 235.073 16.366 233.753 16.366C232.469 16.366 231.401 16.114 230.549 15.61C230.117 15.37 229.901 15.094 229.901 14.782C229.901 14.614 229.943 14.476 230.027 14.368C230.123 14.26 230.243 14.206 230.387 14.206C230.507 14.206 230.723 14.29 231.035 14.458C231.455 14.674 231.869 14.848 232.277 14.98C232.685 15.112 233.171 15.178 233.735 15.178C234.587 15.178 235.229 14.95 235.661 14.494C236.093 14.05 236.309 13.396 236.309 12.532V10.984C236.057 11.548 235.667 11.98 235.139 12.28C234.623 12.58 234.011 12.73 233.303 12.73C232.535 12.73 231.851 12.55 231.251 12.19C230.663 11.83 230.201 11.32 229.865 10.66C229.541 10 229.379 9.238 229.379 8.374C229.379 7.51 229.541 6.748 229.865 6.088C230.201 5.428 230.663 4.918 231.251 4.558C231.851 4.198 232.535 4.018 233.303 4.018C233.999 4.018 234.605 4.168 235.121 4.468C235.637 4.768 236.027 5.194 236.291 5.746V4.774C236.291 4.558 236.351 4.384 236.471 4.252C236.603 4.12 236.783 4.054 237.011 4.054ZM233.591 11.524C234.431 11.524 235.091 11.248 235.571 10.696C236.051 10.132 236.291 9.358 236.291 8.374C236.291 7.402 236.051 6.64 235.571 6.088C235.103 5.524 234.443 5.242 233.591 5.242C232.739 5.242 232.067 5.524 231.575 6.088C231.095 6.64 230.855 7.402 230.855 8.374C230.855 9.358 231.095 10.132 231.575 10.696C232.067 11.248 232.739 11.524 233.591 11.524ZM244.876 4.018C245.908 4.018 246.688 4.312 247.216 4.9C247.744 5.476 248.008 6.34 248.008 7.492V12.37C248.008 12.598 247.942 12.778 247.81 12.91C247.678 13.03 247.504 13.09 247.288 13.09C247.06 13.09 246.88 13.03 246.748 12.91C246.616 12.778 246.55 12.598 246.55 12.37V7.528C246.55 6.748 246.388 6.172 246.064 5.8C245.752 5.428 245.248 5.242 244.552 5.242C243.748 5.242 243.106 5.488 242.626 5.98C242.146 6.472 241.906 7.138 241.906 7.978V12.37C241.906 12.598 241.84 12.778 241.708 12.91C241.588 13.03 241.414 13.09 241.186 13.09C240.958 13.09 240.778 13.03 240.646 12.91C240.514 12.778 240.448 12.598 240.448 12.37V0.922C240.448 0.718 240.514 0.549999 240.646 0.417999C240.79 0.285999 240.97 0.219999 241.186 0.219999C241.414 0.219999 241.588 0.285999 241.708 0.417999C241.84 0.538 241.906 0.706 241.906 0.922V5.638C242.194 5.11 242.596 4.708 243.112 4.432C243.628 4.156 244.216 4.018 244.876 4.018ZM254.728 11.938C255.148 11.974 255.358 12.166 255.358 12.514C255.358 12.718 255.28 12.874 255.124 12.982C254.98 13.078 254.758 13.114 254.458 13.09L253.972 13.054C253.012 12.982 252.304 12.694 251.848 12.19C251.392 11.686 251.164 10.924 251.164 9.904V5.386H249.958C249.754 5.386 249.592 5.338 249.472 5.242C249.364 5.134 249.31 4.996 249.31 4.828C249.31 4.648 249.364 4.504 249.472 4.396C249.592 4.288 249.754 4.234 249.958 4.234H251.164V2.2C251.164 1.972 251.23 1.798 251.362 1.678C251.494 1.546 251.674 1.48 251.902 1.48C252.118 1.48 252.292 1.546 252.424 1.678C252.556 1.798 252.622 1.972 252.622 2.2V4.234H254.62C254.812 4.234 254.962 4.288 255.07 4.396C255.19 4.504 255.25 4.648 255.25 4.828C255.25 4.996 255.19 5.134 255.07 5.242C254.962 5.338 254.812 5.386 254.62 5.386H252.622V9.976C252.622 10.636 252.754 11.116 253.018 11.416C253.294 11.704 253.702 11.866 254.242 11.902L254.728 11.938ZM259.747 13.126C259.195 13.126 258.667 13.06 258.163 12.928C257.671 12.796 257.233 12.61 256.849 12.37C256.633 12.226 256.477 12.094 256.381 11.974C256.297 11.842 256.255 11.686 256.255 11.506C256.255 11.35 256.297 11.224 256.381 11.128C256.477 11.02 256.597 10.966 256.741 10.966C256.885 10.966 257.095 11.056 257.371 11.236C257.731 11.452 258.085 11.626 258.433 11.758C258.793 11.878 259.237 11.938 259.765 11.938C260.413 11.938 260.917 11.824 261.277 11.596C261.637 11.368 261.817 11.038 261.817 10.606C261.817 10.342 261.751 10.132 261.619 9.976C261.487 9.808 261.259 9.664 260.935 9.544C260.611 9.412 260.137 9.28 259.513 9.148C258.457 8.92 257.701 8.614 257.245 8.23C256.789 7.846 256.561 7.324 256.561 6.664C256.561 6.148 256.705 5.692 256.993 5.296C257.281 4.9 257.677 4.588 258.181 4.36C258.697 4.132 259.279 4.018 259.927 4.018C260.395 4.018 260.845 4.084 261.277 4.216C261.721 4.336 262.111 4.51 262.447 4.738C262.855 5.026 263.059 5.326 263.059 5.638C263.059 5.794 263.011 5.926 262.915 6.034C262.819 6.142 262.705 6.196 262.573 6.196C262.429 6.196 262.213 6.094 261.925 5.89C261.589 5.674 261.271 5.506 260.971 5.386C260.671 5.266 260.299 5.206 259.855 5.206C259.291 5.206 258.835 5.332 258.487 5.584C258.151 5.836 257.983 6.172 257.983 6.592C257.983 6.856 258.043 7.072 258.163 7.24C258.295 7.396 258.505 7.54 258.793 7.672C259.093 7.792 259.519 7.912 260.071 8.032C260.887 8.212 261.517 8.41 261.961 8.626C262.417 8.842 262.741 9.106 262.933 9.418C263.125 9.73 263.221 10.126 263.221 10.606C263.221 11.362 262.903 11.974 262.267 12.442C261.631 12.898 260.791 13.126 259.747 13.126ZM279.984 12.082C280.068 12.214 280.11 12.352 280.11 12.496C280.11 12.676 280.038 12.826 279.894 12.946C279.762 13.054 279.606 13.108 279.426 13.108C279.15 13.108 278.934 12.988 278.778 12.748L276.366 8.932C276.054 8.44 275.73 8.104 275.394 7.924C275.058 7.732 274.602 7.636 274.026 7.636H271.758V12.334C271.758 12.562 271.692 12.748 271.56 12.892C271.428 13.024 271.254 13.09 271.038 13.09C270.81 13.09 270.63 13.024 270.498 12.892C270.366 12.748 270.3 12.562 270.3 12.334V1.03C270.3 0.814 270.366 0.64 270.498 0.508C270.642 0.375999 270.828 0.309999 271.056 0.309999H275.52C276.9 0.309999 277.95 0.615999 278.67 1.228C279.402 1.84 279.768 2.74 279.768 3.928C279.768 4.936 279.474 5.746 278.886 6.358C278.31 6.97 277.482 7.342 276.402 7.474C276.702 7.57 276.972 7.726 277.212 7.942C277.452 8.158 277.692 8.458 277.932 8.842L279.984 12.082ZM275.394 6.412C276.378 6.412 277.11 6.208 277.59 5.8C278.082 5.392 278.328 4.774 278.328 3.946C278.328 3.13 278.088 2.524 277.608 2.128C277.128 1.732 276.39 1.534 275.394 1.534H271.758V6.412H275.394ZM289.21 10.966C289.342 10.966 289.456 11.02 289.552 11.128C289.648 11.236 289.696 11.374 289.696 11.542C289.696 11.842 289.486 12.118 289.066 12.37C288.634 12.622 288.178 12.814 287.698 12.946C287.218 13.066 286.75 13.126 286.294 13.126C284.938 13.126 283.864 12.724 283.072 11.92C282.292 11.116 281.902 10.006 281.902 8.59C281.902 7.69 282.076 6.898 282.424 6.214C282.772 5.518 283.258 4.978 283.882 4.594C284.518 4.21 285.238 4.018 286.042 4.018C287.182 4.018 288.088 4.39 288.76 5.134C289.432 5.878 289.768 6.886 289.768 8.158C289.768 8.398 289.72 8.572 289.624 8.68C289.528 8.788 289.372 8.842 289.156 8.842H283.36C283.468 10.906 284.446 11.938 286.294 11.938C286.762 11.938 287.164 11.878 287.5 11.758C287.836 11.626 288.196 11.452 288.58 11.236C288.892 11.056 289.102 10.966 289.21 10.966ZM286.06 5.152C285.292 5.152 284.674 5.392 284.206 5.872C283.75 6.352 283.48 7.03 283.396 7.906H288.49C288.466 7.018 288.244 6.34 287.824 5.872C287.404 5.392 286.816 5.152 286.06 5.152ZM294.868 13.126C294.316 13.126 293.788 13.06 293.284 12.928C292.792 12.796 292.354 12.61 291.97 12.37C291.754 12.226 291.598 12.094 291.502 11.974C291.418 11.842 291.376 11.686 291.376 11.506C291.376 11.35 291.418 11.224 291.502 11.128C291.598 11.02 291.718 10.966 291.862 10.966C292.006 10.966 292.216 11.056 292.492 11.236C292.852 11.452 293.206 11.626 293.554 11.758C293.914 11.878 294.358 11.938 294.886 11.938C295.534 11.938 296.038 11.824 296.398 11.596C296.758 11.368 296.938 11.038 296.938 10.606C296.938 10.342 296.872 10.132 296.74 9.976C296.608 9.808 296.38 9.664 296.056 9.544C295.732 9.412 295.258 9.28 294.634 9.148C293.578 8.92 292.822 8.614 292.366 8.23C291.91 7.846 291.682 7.324 291.682 6.664C291.682 6.148 291.826 5.692 292.114 5.296C292.402 4.9 292.798 4.588 293.302 4.36C293.818 4.132 294.4 4.018 295.048 4.018C295.516 4.018 295.966 4.084 296.398 4.216C296.842 4.336 297.232 4.51 297.568 4.738C297.976 5.026 298.18 5.326 298.18 5.638C298.18 5.794 298.132 5.926 298.036 6.034C297.94 6.142 297.826 6.196 297.694 6.196C297.55 6.196 297.334 6.094 297.046 5.89C296.71 5.674 296.392 5.506 296.092 5.386C295.792 5.266 295.42 5.206 294.976 5.206C294.412 5.206 293.956 5.332 293.608 5.584C293.272 5.836 293.104 6.172 293.104 6.592C293.104 6.856 293.164 7.072 293.284 7.24C293.416 7.396 293.626 7.54 293.914 7.672C294.214 7.792 294.64 7.912 295.192 8.032C296.008 8.212 296.638 8.41 297.082 8.626C297.538 8.842 297.862 9.106 298.054 9.418C298.246 9.73 298.342 10.126 298.342 10.606C298.342 11.362 298.024 11.974 297.388 12.442C296.752 12.898 295.912 13.126 294.868 13.126ZM307.351 10.966C307.483 10.966 307.597 11.02 307.693 11.128C307.789 11.236 307.837 11.374 307.837 11.542C307.837 11.842 307.627 12.118 307.207 12.37C306.775 12.622 306.319 12.814 305.839 12.946C305.359 13.066 304.891 13.126 304.435 13.126C303.079 13.126 302.005 12.724 301.213 11.92C300.433 11.116 300.043 10.006 300.043 8.59C300.043 7.69 300.217 6.898 300.565 6.214C300.913 5.518 301.399 4.978 302.023 4.594C302.659 4.21 303.379 4.018 304.183 4.018C305.323 4.018 306.229 4.39 306.901 5.134C307.573 5.878 307.909 6.886 307.909 8.158C307.909 8.398 307.861 8.572 307.765 8.68C307.669 8.788 307.513 8.842 307.297 8.842H301.501C301.609 10.906 302.587 11.938 304.435 11.938C304.903 11.938 305.305 11.878 305.641 11.758C305.977 11.626 306.337 11.452 306.721 11.236C307.033 11.056 307.243 10.966 307.351 10.966ZM304.201 5.152C303.433 5.152 302.815 5.392 302.347 5.872C301.891 6.352 301.621 7.03 301.537 7.906H306.631C306.607 7.018 306.385 6.34 305.965 5.872C305.545 5.392 304.957 5.152 304.201 5.152ZM314.395 4.054C314.899 4.018 315.151 4.222 315.151 4.666C315.151 4.858 315.097 5.014 314.989 5.134C314.881 5.242 314.695 5.308 314.431 5.332L313.891 5.386C313.087 5.458 312.487 5.746 312.091 6.25C311.707 6.742 311.515 7.324 311.515 7.996V12.37C311.515 12.61 311.449 12.79 311.317 12.91C311.185 13.03 311.011 13.09 310.795 13.09C310.579 13.09 310.399 13.03 310.255 12.91C310.123 12.778 310.057 12.598 310.057 12.37V4.774C310.057 4.546 310.129 4.372 310.273 4.252C310.417 4.12 310.591 4.054 310.795 4.054C310.987 4.054 311.149 4.12 311.281 4.252C311.413 4.372 311.479 4.54 311.479 4.756V5.764C311.731 5.236 312.085 4.834 312.541 4.558C313.009 4.282 313.543 4.12 314.143 4.072L314.395 4.054ZM323.266 4.504C323.398 4.216 323.608 4.072 323.896 4.072C324.076 4.072 324.238 4.132 324.382 4.252C324.526 4.372 324.598 4.522 324.598 4.702C324.598 4.81 324.574 4.906 324.526 4.99L321.016 12.55C320.944 12.706 320.836 12.832 320.692 12.928C320.548 13.012 320.392 13.054 320.224 13.054C320.068 13.054 319.918 13.012 319.774 12.928C319.63 12.832 319.516 12.706 319.432 12.55L315.94 4.99C315.892 4.906 315.868 4.816 315.868 4.72C315.868 4.54 315.946 4.384 316.102 4.252C316.27 4.12 316.45 4.054 316.642 4.054C316.762 4.054 316.876 4.09 316.984 4.162C317.104 4.234 317.194 4.336 317.254 4.468L320.26 11.218L323.266 4.504ZM332.874 10.966C333.006 10.966 333.12 11.02 333.216 11.128C333.312 11.236 333.36 11.374 333.36 11.542C333.36 11.842 333.15 12.118 332.73 12.37C332.298 12.622 331.842 12.814 331.362 12.946C330.882 13.066 330.414 13.126 329.958 13.126C328.602 13.126 327.528 12.724 326.736 11.92C325.956 11.116 325.566 10.006 325.566 8.59C325.566 7.69 325.74 6.898 326.088 6.214C326.436 5.518 326.922 4.978 327.546 4.594C328.182 4.21 328.902 4.018 329.706 4.018C330.846 4.018 331.752 4.39 332.424 5.134C333.096 5.878 333.432 6.886 333.432 8.158C333.432 8.398 333.384 8.572 333.288 8.68C333.192 8.788 333.036 8.842 332.82 8.842H327.024C327.132 10.906 328.11 11.938 329.958 11.938C330.426 11.938 330.828 11.878 331.164 11.758C331.5 11.626 331.86 11.452 332.244 11.236C332.556 11.056 332.766 10.966 332.874 10.966ZM329.724 5.152C328.956 5.152 328.338 5.392 327.87 5.872C327.414 6.352 327.144 7.03 327.06 7.906H332.154C332.13 7.018 331.908 6.34 331.488 5.872C331.068 5.392 330.48 5.152 329.724 5.152ZM342.618 0.219999C342.846 0.219999 343.026 0.285999 343.158 0.417999C343.29 0.549999 343.356 0.718 343.356 0.922V12.37C343.356 12.586 343.29 12.76 343.158 12.892C343.026 13.024 342.846 13.09 342.618 13.09C342.39 13.09 342.21 13.024 342.078 12.892C341.958 12.76 341.898 12.586 341.898 12.37V11.398C341.634 11.95 341.244 12.376 340.728 12.676C340.224 12.976 339.63 13.126 338.946 13.126C338.178 13.126 337.5 12.934 336.912 12.55C336.324 12.166 335.868 11.632 335.544 10.948C335.22 10.252 335.058 9.448 335.058 8.536C335.058 7.636 335.22 6.844 335.544 6.16C335.868 5.476 336.324 4.948 336.912 4.576C337.5 4.204 338.178 4.018 338.946 4.018C339.63 4.018 340.224 4.168 340.728 4.468C341.244 4.768 341.634 5.194 341.898 5.746V0.922C341.898 0.706 341.958 0.538 342.078 0.417999C342.21 0.285999 342.39 0.219999 342.618 0.219999ZM339.234 11.92C340.086 11.92 340.74 11.632 341.196 11.056C341.664 10.468 341.898 9.64 341.898 8.572C341.898 7.504 341.664 6.682 341.196 6.106C340.74 5.53 340.086 5.242 339.234 5.242C338.382 5.242 337.716 5.53 337.236 6.106C336.768 6.682 336.534 7.492 336.534 8.536C336.534 9.604 336.768 10.438 337.236 11.038C337.716 11.626 338.382 11.92 339.234 11.92ZM346.777 13.09C346.489 13.09 346.249 13 346.057 12.82C345.865 12.628 345.769 12.382 345.769 12.082C345.769 11.782 345.865 11.536 346.057 11.344C346.249 11.152 346.489 11.056 346.777 11.056C347.053 11.056 347.281 11.152 347.461 11.344C347.653 11.536 347.749 11.782 347.749 12.082C347.749 12.382 347.653 12.628 347.461 12.82C347.281 13 347.053 13.09 346.777 13.09Z" fill="white"/>
</svg>
